<?xml version="1.0" encoding="UTF-8" standalone="no"?>
<!DOCTYPE svg PUBLIC "-//W3C//DTD SVG 1.1//EN"
 "http://www.w3.org/Graphics/SVG/1.1/DTD/svg11.dtd">
<!-- Generated by graphviz version 2.43.0 (0)
 -->
<!-- Title: %3 Pages: 1 -->
<svg width="2141pt" height="476pt"
 viewBox="0.00 0.00 2141.27 476.00" xmlns="http://www.w3.org/2000/svg" xmlns:xlink="http://www.w3.org/1999/xlink">
<g id="graph0" class="graph" transform="scale(1 1) rotate(0) translate(4 472)">
<title>%3</title>
<polygon fill="white" stroke="transparent" points="-4,4 -4,-472 2137.27,-472 2137.27,4 -4,4"/>
<!-- [root] aws_instance.dev_node (expand) -->
<g id="node1" class="node">
<title>[root] aws_instance.dev_node (expand)</title>
<polygon fill="none" stroke="black" points="1106.5,-252 924.5,-252 924.5,-216 1106.5,-216 1106.5,-252"/>
<text text-anchor="middle" x="1015.5" y="-230.3" font-family="Times,serif" font-size="14.00">aws_instance.dev_node</text>
</g>
<!-- [root] aws_key_pair.dev_ssh_key (expand) -->
<g id="node3" class="node">
<title>[root] aws_key_pair.dev_ssh_key (expand)</title>
<polygon fill="none" stroke="black" points="1029.5,-108 827.5,-108 827.5,-72 1029.5,-72 1029.5,-108"/>
<text text-anchor="middle" x="928.5" y="-86.3" font-family="Times,serif" font-size="14.00">aws_key_pair.dev_ssh_key</text>
</g>
<!-- [root] aws_instance.dev_node (expand)&#45;&gt;[root] aws_key_pair.dev_ssh_key (expand) -->
<g id="edge1" class="edge">
<title>[root] aws_instance.dev_node (expand)&#45;&gt;[root] aws_key_pair.dev_ssh_key (expand)</title>
<path fill="none" stroke="black" d="M1045.8,-215.8C1058.38,-206.9 1071.62,-194.77 1078.5,-180 1085.25,-165.49 1087.74,-157.06 1078.5,-144 1068.57,-129.96 1054.59,-119.61 1039.13,-111.99"/>
<polygon fill="black" stroke="black" points="1040.42,-108.74 1029.87,-107.81 1037.54,-115.12 1040.42,-108.74"/>
</g>
<!-- [root] aws_security_group.dev_sg (expand) -->
<g id="node7" class="node">
<title>[root] aws_security_group.dev_sg (expand)</title>
<polygon fill="none" stroke="black" points="1069,-180 858,-180 858,-144 1069,-144 1069,-180"/>
<text text-anchor="middle" x="963.5" y="-158.3" font-family="Times,serif" font-size="14.00">aws_security_group.dev_sg</text>
</g>
<!-- [root] aws_instance.dev_node (expand)&#45;&gt;[root] aws_security_group.dev_sg (expand) -->
<g id="edge2" class="edge">
<title>[root] aws_instance.dev_node (expand)&#45;&gt;[root] aws_security_group.dev_sg (expand)</title>
<path fill="none" stroke="black" d="M1002.65,-215.7C996.47,-207.39 988.96,-197.28 982.18,-188.14"/>
<polygon fill="black" stroke="black" points="984.98,-186.04 976.21,-180.1 979.36,-190.22 984.98,-186.04"/>
</g>
<!-- [root] aws_subnet.dev_public_subnet (expand) -->
<g id="node8" class="node">
<title>[root] aws_subnet.dev_public_subnet (expand)</title>
<polygon fill="none" stroke="black" points="839.5,-180 603.5,-180 603.5,-144 839.5,-144 839.5,-180"/>
<text text-anchor="middle" x="721.5" y="-158.3" font-family="Times,serif" font-size="14.00">aws_subnet.dev_public_subnet</text>
</g>
<!-- [root] aws_instance.dev_node (expand)&#45;&gt;[root] aws_subnet.dev_public_subnet (expand) -->
<g id="edge3" class="edge">
<title>[root] aws_instance.dev_node (expand)&#45;&gt;[root] aws_subnet.dev_public_subnet (expand)</title>
<path fill="none" stroke="black" d="M943.96,-215.97C901.37,-205.83 847.19,-192.93 802.96,-182.4"/>
<polygon fill="black" stroke="black" points="803.65,-178.96 793.11,-180.05 802.03,-185.77 803.65,-178.96"/>
</g>
<!-- [root] data.aws_ami.dev_ami (expand) -->
<g id="node10" class="node">
<title>[root] data.aws_ami.dev_ami (expand)</title>
<polygon fill="none" stroke="black" points="1223.5,-108 1047.5,-108 1047.5,-72 1223.5,-72 1223.5,-108"/>
<text text-anchor="middle" x="1135.5" y="-86.3" font-family="Times,serif" font-size="14.00">data.aws_ami.dev_ami</text>
</g>
<!-- [root] aws_instance.dev_node (expand)&#45;&gt;[root] data.aws_ami.dev_ami (expand) -->
<g id="edge4" class="edge">
<title>[root] aws_instance.dev_node (expand)&#45;&gt;[root] data.aws_ami.dev_ami (expand)</title>
<path fill="none" stroke="black" d="M1050.29,-215.77C1065.69,-206.78 1083.1,-194.6 1095.5,-180 1110.86,-161.91 1121.38,-136.98 1127.77,-118.1"/>
<polygon fill="black" stroke="black" points="1131.18,-118.91 1130.89,-108.32 1124.52,-116.78 1131.18,-118.91"/>
</g>
<!-- [root] var.host_os -->
<g id="node17" class="node">
<title>[root] var.host_os</title>
<polygon fill="none" stroke="black" points="1253.5,-180 1163.5,-180 1163.5,-144 1259.5,-144 1259.5,-174 1253.5,-180"/>
<polyline fill="none" stroke="black" points="1253.5,-180 1253.5,-174 "/>
<polyline fill="none" stroke="black" points="1259.5,-174 1253.5,-174 "/>
<text text-anchor="middle" x="1211.5" y="-158.3" font-family="Times,serif" font-size="14.00">var.host_os</text>
</g>
<!-- [root] aws_instance.dev_node (expand)&#45;&gt;[root] var.host_os -->
<g id="edge5" class="edge">
<title>[root] aws_instance.dev_node (expand)&#45;&gt;[root] var.host_os</title>
<path fill="none" stroke="black" d="M1063.2,-215.97C1090.58,-206.19 1125.16,-193.84 1154.03,-183.52"/>
<polygon fill="black" stroke="black" points="1155.35,-186.77 1163.59,-180.11 1153,-180.18 1155.35,-186.77"/>
</g>
<!-- [root] aws_internet_gateway.dev_internet_gateway (expand) -->
<g id="node2" class="node">
<title>[root] aws_internet_gateway.dev_internet_gateway (expand)</title>
<polygon fill="none" stroke="black" points="335,-180 0,-180 0,-144 335,-144 335,-180"/>
<text text-anchor="middle" x="167.5" y="-158.3" font-family="Times,serif" font-size="14.00">aws_internet_gateway.dev_internet_gateway</text>
</g>
<!-- [root] aws_vpc.dev_vpc (expand) -->
<g id="node9" class="node">
<title>[root] aws_vpc.dev_vpc (expand)</title>
<polygon fill="none" stroke="black" points="790,-108 653,-108 653,-72 790,-72 790,-108"/>
<text text-anchor="middle" x="721.5" y="-86.3" font-family="Times,serif" font-size="14.00">aws_vpc.dev_vpc</text>
</g>
<!-- [root] aws_internet_gateway.dev_internet_gateway (expand)&#45;&gt;[root] aws_vpc.dev_vpc (expand) -->
<g id="edge6" class="edge">
<title>[root] aws_internet_gateway.dev_internet_gateway (expand)&#45;&gt;[root] aws_vpc.dev_vpc (expand)</title>
<path fill="none" stroke="black" d="M302.32,-143.97C409.02,-130.48 554.35,-112.12 642.85,-100.94"/>
<polygon fill="black" stroke="black" points="643.35,-104.4 652.83,-99.68 642.47,-97.46 643.35,-104.4"/>
</g>
<!-- [root] provider[&quot;registry.terraform.io/hashicorp/aws&quot;] -->
<g id="node14" class="node">
<title>[root] provider[&quot;registry.terraform.io/hashicorp/aws&quot;]</title>
<polygon fill="none" stroke="black" points="928.5,-36 603.24,-18 928.5,0 1253.76,-18 928.5,-36"/>
<text text-anchor="middle" x="928.5" y="-14.3" font-family="Times,serif" font-size="14.00">provider[&quot;registry.terraform.io/hashicorp/aws&quot;]</text>
</g>
<!-- [root] aws_key_pair.dev_ssh_key (expand)&#45;&gt;[root] provider[&quot;registry.terraform.io/hashicorp/aws&quot;] -->
<g id="edge7" class="edge">
<title>[root] aws_key_pair.dev_ssh_key (expand)&#45;&gt;[root] provider[&quot;registry.terraform.io/hashicorp/aws&quot;]</title>
<path fill="none" stroke="black" d="M928.5,-71.7C928.5,-63.98 928.5,-54.71 928.5,-46.11"/>
<polygon fill="black" stroke="black" points="932,-46.1 928.5,-36.1 925,-46.1 932,-46.1"/>
</g>
<!-- [root] aws_route.dev_default_route (expand) -->
<g id="node4" class="node">
<title>[root] aws_route.dev_default_route (expand)</title>
<polygon fill="none" stroke="black" points="478,-252 257,-252 257,-216 478,-216 478,-252"/>
<text text-anchor="middle" x="367.5" y="-230.3" font-family="Times,serif" font-size="14.00">aws_route.dev_default_route</text>
</g>
<!-- [root] aws_route.dev_default_route (expand)&#45;&gt;[root] aws_internet_gateway.dev_internet_gateway (expand) -->
<g id="edge8" class="edge">
<title>[root] aws_route.dev_default_route (expand)&#45;&gt;[root] aws_internet_gateway.dev_internet_gateway (expand)</title>
<path fill="none" stroke="black" d="M318.83,-215.97C290.89,-206.19 255.6,-193.84 226.14,-183.52"/>
<polygon fill="black" stroke="black" points="226.98,-180.11 216.39,-180.11 224.67,-186.72 226.98,-180.11"/>
</g>
<!-- [root] aws_route_table.dev_public_rt (expand) -->
<g id="node5" class="node">
<title>[root] aws_route_table.dev_public_rt (expand)</title>
<polygon fill="none" stroke="black" points="585.5,-180 353.5,-180 353.5,-144 585.5,-144 585.5,-180"/>
<text text-anchor="middle" x="469.5" y="-158.3" font-family="Times,serif" font-size="14.00">aws_route_table.dev_public_rt</text>
</g>
<!-- [root] aws_route.dev_default_route (expand)&#45;&gt;[root] aws_route_table.dev_public_rt (expand) -->
<g id="edge9" class="edge">
<title>[root] aws_route.dev_default_route (expand)&#45;&gt;[root] aws_route_table.dev_public_rt (expand)</title>
<path fill="none" stroke="black" d="M392.45,-215.88C405.54,-206.89 421.76,-195.76 435.94,-186.03"/>
<polygon fill="black" stroke="black" points="438.19,-188.73 444.45,-180.19 434.23,-182.96 438.19,-188.73"/>
</g>
<!-- [root] aws_route_table.dev_public_rt (expand)&#45;&gt;[root] aws_vpc.dev_vpc (expand) -->
<g id="edge10" class="edge">
<title>[root] aws_route_table.dev_public_rt (expand)&#45;&gt;[root] aws_vpc.dev_vpc (expand)</title>
<path fill="none" stroke="black" d="M530.82,-143.97C566.8,-133.97 612.43,-121.3 650.03,-110.85"/>
<polygon fill="black" stroke="black" points="651.2,-114.16 659.9,-108.11 649.33,-107.42 651.2,-114.16"/>
</g>
<!-- [root] aws_route_table_association.dev_public_assoc (expand) -->
<g id="node6" class="node">
<title>[root] aws_route_table_association.dev_public_assoc (expand)</title>
<polygon fill="none" stroke="black" points="840.5,-252 496.5,-252 496.5,-216 840.5,-216 840.5,-252"/>
<text text-anchor="middle" x="668.5" y="-230.3" font-family="Times,serif" font-size="14.00">aws_route_table_association.dev_public_assoc</text>
</g>
<!-- [root] aws_route_table_association.dev_public_assoc (expand)&#45;&gt;[root] aws_route_table.dev_public_rt (expand) -->
<g id="edge11" class="edge">
<title>[root] aws_route_table_association.dev_public_assoc (expand)&#45;&gt;[root] aws_route_table.dev_public_rt (expand)</title>
<path fill="none" stroke="black" d="M620.07,-215.97C592.27,-206.19 557.16,-193.84 527.85,-183.52"/>
<polygon fill="black" stroke="black" points="528.74,-180.13 518.14,-180.11 526.42,-186.73 528.74,-180.13"/>
</g>
<!-- [root] aws_route_table_association.dev_public_assoc (expand)&#45;&gt;[root] aws_subnet.dev_public_subnet (expand) -->
<g id="edge12" class="edge">
<title>[root] aws_route_table_association.dev_public_assoc (expand)&#45;&gt;[root] aws_subnet.dev_public_subnet (expand)</title>
<path fill="none" stroke="black" d="M681.6,-215.7C687.89,-207.39 695.55,-197.28 702.46,-188.14"/>
<polygon fill="black" stroke="black" points="705.3,-190.19 708.55,-180.1 699.72,-185.96 705.3,-190.19"/>
</g>
<!-- [root] aws_security_group.dev_sg (expand)&#45;&gt;[root] aws_vpc.dev_vpc (expand) -->
<g id="edge13" class="edge">
<title>[root] aws_security_group.dev_sg (expand)&#45;&gt;[root] aws_vpc.dev_vpc (expand)</title>
<path fill="none" stroke="black" d="M904.61,-143.97C870.21,-134.01 826.62,-121.41 790.6,-110.99"/>
<polygon fill="black" stroke="black" points="791.23,-107.53 780.65,-108.11 789.29,-114.25 791.23,-107.53"/>
</g>
<!-- [root] data.http.myip (expand) -->
<g id="node11" class="node">
<title>[root] data.http.myip (expand)</title>
<polygon fill="none" stroke="black" points="1741.5,-108 1619.5,-108 1619.5,-72 1741.5,-72 1741.5,-108"/>
<text text-anchor="middle" x="1680.5" y="-86.3" font-family="Times,serif" font-size="14.00">data.http.myip</text>
</g>
<!-- [root] aws_security_group.dev_sg (expand)&#45;&gt;[root] data.http.myip (expand) -->
<g id="edge14" class="edge">
<title>[root] aws_security_group.dev_sg (expand)&#45;&gt;[root] data.http.myip (expand)</title>
<path fill="none" stroke="black" d="M1069.3,-150.67C1217.4,-136.21 1482.58,-110.32 1609.29,-97.95"/>
<polygon fill="black" stroke="black" points="1609.66,-101.43 1619.28,-96.98 1608.98,-94.47 1609.66,-101.43"/>
</g>
<!-- [root] aws_subnet.dev_public_subnet (expand)&#45;&gt;[root] aws_vpc.dev_vpc (expand) -->
<g id="edge15" class="edge">
<title>[root] aws_subnet.dev_public_subnet (expand)&#45;&gt;[root] aws_vpc.dev_vpc (expand)</title>
<path fill="none" stroke="black" d="M721.5,-143.7C721.5,-135.98 721.5,-126.71 721.5,-118.11"/>
<polygon fill="black" stroke="black" points="725,-118.1 721.5,-108.1 718,-118.1 725,-118.1"/>
</g>
<!-- [root] aws_vpc.dev_vpc (expand)&#45;&gt;[root] provider[&quot;registry.terraform.io/hashicorp/aws&quot;] -->
<g id="edge16" class="edge">
<title>[root] aws_vpc.dev_vpc (expand)&#45;&gt;[root] provider[&quot;registry.terraform.io/hashicorp/aws&quot;]</title>
<path fill="none" stroke="black" d="M771.87,-71.97C803.32,-61.33 843.76,-47.66 875.66,-36.87"/>
<polygon fill="black" stroke="black" points="876.92,-40.14 885.27,-33.62 874.68,-33.51 876.92,-40.14"/>
</g>
<!-- [root] data.aws_ami.dev_ami (expand)&#45;&gt;[root] provider[&quot;registry.terraform.io/hashicorp/aws&quot;] -->
<g id="edge17" class="edge">
<title>[root] data.aws_ami.dev_ami (expand)&#45;&gt;[root] provider[&quot;registry.terraform.io/hashicorp/aws&quot;]</title>
<path fill="none" stroke="black" d="M1085.13,-71.97C1053.68,-61.33 1013.24,-47.66 981.34,-36.87"/>
<polygon fill="black" stroke="black" points="982.32,-33.51 971.73,-33.62 980.08,-40.14 982.32,-33.51"/>
</g>
<!-- [root] provider[&quot;registry.terraform.io/hashicorp/http&quot;] -->
<g id="node15" class="node">
<title>[root] provider[&quot;registry.terraform.io/hashicorp/http&quot;]</title>
<polygon fill="none" stroke="black" points="1680.5,-36 1353.06,-18 1680.5,0 2007.94,-18 1680.5,-36"/>
<text text-anchor="middle" x="1680.5" y="-14.3" font-family="Times,serif" font-size="14.00">provider[&quot;registry.terraform.io/hashicorp/http&quot;]</text>
</g>
<!-- [root] data.http.myip (expand)&#45;&gt;[root] provider[&quot;registry.terraform.io/hashicorp/http&quot;] -->
<g id="edge18" class="edge">
<title>[root] data.http.myip (expand)&#45;&gt;[root] provider[&quot;registry.terraform.io/hashicorp/http&quot;]</title>
<path fill="none" stroke="black" d="M1680.5,-71.7C1680.5,-63.98 1680.5,-54.71 1680.5,-46.11"/>
<polygon fill="black" stroke="black" points="1684,-46.1 1680.5,-36.1 1677,-46.1 1684,-46.1"/>
</g>
<!-- [root] null_resource.instance_check (expand) -->
<g id="node12" class="node">
<title>[root] null_resource.instance_check (expand)</title>
<polygon fill="none" stroke="black" points="1361.5,-324 1137.5,-324 1137.5,-288 1361.5,-288 1361.5,-324"/>
<text text-anchor="middle" x="1249.5" y="-302.3" font-family="Times,serif" font-size="14.00">null_resource.instance_check</text>
</g>
<!-- [root] null_resource.instance_check (expand)&#45;&gt;[root] aws_instance.dev_node (expand) -->
<g id="edge19" class="edge">
<title>[root] null_resource.instance_check (expand)&#45;&gt;[root] aws_instance.dev_node (expand)</title>
<path fill="none" stroke="black" d="M1192.56,-287.97C1159.29,-278.01 1117.14,-265.41 1082.31,-254.99"/>
<polygon fill="black" stroke="black" points="1083.28,-251.62 1072.7,-252.11 1081.28,-258.33 1083.28,-251.62"/>
</g>
<!-- [root] provider[&quot;registry.terraform.io/hashicorp/null&quot;] -->
<g id="node16" class="node">
<title>[root] provider[&quot;registry.terraform.io/hashicorp/null&quot;]</title>
<polygon fill="none" stroke="black" points="1448.5,-252 1124.07,-234 1448.5,-216 1772.93,-234 1448.5,-252"/>
<text text-anchor="middle" x="1448.5" y="-230.3" font-family="Times,serif" font-size="14.00">provider[&quot;registry.terraform.io/hashicorp/null&quot;]</text>
</g>
<!-- [root] null_resource.instance_check (expand)&#45;&gt;[root] provider[&quot;registry.terraform.io/hashicorp/null&quot;] -->
<g id="edge20" class="edge">
<title>[root] null_resource.instance_check (expand)&#45;&gt;[root] provider[&quot;registry.terraform.io/hashicorp/null&quot;]</title>
<path fill="none" stroke="black" d="M1297.93,-287.97C1327.93,-277.41 1366.43,-263.87 1396.99,-253.12"/>
<polygon fill="black" stroke="black" points="1398.34,-256.35 1406.61,-249.73 1396.02,-249.75 1398.34,-256.35"/>
</g>
<!-- [root] output.dev_public_address -->
<g id="node13" class="node">
<title>[root] output.dev_public_address</title>
<polygon fill="none" stroke="black" points="1113,-324 912,-324 912,-288 1119,-288 1119,-318 1113,-324"/>
<polyline fill="none" stroke="black" points="1113,-324 1113,-318 "/>
<polyline fill="none" stroke="black" points="1119,-318 1113,-318 "/>
<text text-anchor="middle" x="1015.5" y="-302.3" font-family="Times,serif" font-size="14.00">output.dev_public_address</text>
</g>
<!-- [root] output.dev_public_address&#45;&gt;[root] aws_instance.dev_node (expand) -->
<g id="edge21" class="edge">
<title>[root] output.dev_public_address&#45;&gt;[root] aws_instance.dev_node (expand)</title>
<path fill="none" stroke="black" d="M1015.5,-287.7C1015.5,-279.98 1015.5,-270.71 1015.5,-262.11"/>
<polygon fill="black" stroke="black" points="1019,-262.1 1015.5,-252.1 1012,-262.1 1019,-262.1"/>
</g>
<!-- [root] provider[&quot;registry.terraform.io/hashicorp/aws&quot;] (close) -->
<g id="node18" class="node">
<title>[root] provider[&quot;registry.terraform.io/hashicorp/aws&quot;] (close)</title>
<ellipse fill="none" stroke="black" cx="602.5" cy="-306" rx="291.65" ry="18"/>
<text text-anchor="middle" x="602.5" y="-302.3" font-family="Times,serif" font-size="14.00">[root] provider[&quot;registry.terraform.io/hashicorp/aws&quot;] (close)</text>
</g>
<!-- [root] provider[&quot;registry.terraform.io/hashicorp/aws&quot;] (close)&#45;&gt;[root] aws_instance.dev_node (expand) -->
<g id="edge22" class="edge">
<title>[root] provider[&quot;registry.terraform.io/hashicorp/aws&quot;] (close)&#45;&gt;[root] aws_instance.dev_node (expand)</title>
<path fill="none" stroke="black" d="M697.25,-288.94C762.15,-277.94 848.12,-263.37 914.35,-252.14"/>
<polygon fill="black" stroke="black" points="915.11,-255.57 924.38,-250.44 913.94,-248.66 915.11,-255.57"/>
</g>
<!-- [root] provider[&quot;registry.terraform.io/hashicorp/aws&quot;] (close)&#45;&gt;[root] aws_route.dev_default_route (expand) -->
<g id="edge23" class="edge">
<title>[root] provider[&quot;registry.terraform.io/hashicorp/aws&quot;] (close)&#45;&gt;[root] aws_route.dev_default_route (expand)</title>
<path fill="none" stroke="black" d="M546.51,-288.32C512.88,-278.31 469.89,-265.5 434.47,-254.95"/>
<polygon fill="black" stroke="black" points="435.28,-251.54 424.69,-252.04 433.28,-258.25 435.28,-251.54"/>
</g>
<!-- [root] provider[&quot;registry.terraform.io/hashicorp/aws&quot;] (close)&#45;&gt;[root] aws_route_table_association.dev_public_assoc (expand) -->
<g id="edge24" class="edge">
<title>[root] provider[&quot;registry.terraform.io/hashicorp/aws&quot;] (close)&#45;&gt;[root] aws_route_table_association.dev_public_assoc (expand)</title>
<path fill="none" stroke="black" d="M618.81,-287.7C626.81,-279.22 636.57,-268.86 645.32,-259.58"/>
<polygon fill="black" stroke="black" points="648.06,-261.78 652.37,-252.1 642.97,-256.98 648.06,-261.78"/>
</g>
<!-- [root] provider[&quot;registry.terraform.io/hashicorp/http&quot;] (close) -->
<g id="node19" class="node">
<title>[root] provider[&quot;registry.terraform.io/hashicorp/http&quot;] (close)</title>
<ellipse fill="none" stroke="black" cx="1839.5" cy="-378" rx="293.55" ry="18"/>
<text text-anchor="middle" x="1839.5" y="-374.3" font-family="Times,serif" font-size="14.00">[root] provider[&quot;registry.terraform.io/hashicorp/http&quot;] (close)</text>
</g>
<!-- [root] provider[&quot;registry.terraform.io/hashicorp/http&quot;] (close)&#45;&gt;[root] data.http.myip (expand) -->
<g id="edge25" class="edge">
<title>[root] provider[&quot;registry.terraform.io/hashicorp/http&quot;] (close)&#45;&gt;[root] data.http.myip (expand)</title>
<path fill="none" stroke="black" d="M1835.32,-359.74C1827.53,-329.37 1809.04,-264.93 1781.5,-216 1760.11,-177.99 1727.18,-139.79 1704.78,-115.81"/>
<polygon fill="black" stroke="black" points="1707.03,-113.1 1697.62,-108.24 1701.95,-117.91 1707.03,-113.1"/>
</g>
<!-- [root] provider[&quot;registry.terraform.io/hashicorp/null&quot;] (close) -->
<g id="node20" class="node">
<title>[root] provider[&quot;registry.terraform.io/hashicorp/null&quot;] (close)</title>
<ellipse fill="none" stroke="black" cx="1235.5" cy="-378" rx="291.65" ry="18"/>
<text text-anchor="middle" x="1235.5" y="-374.3" font-family="Times,serif" font-size="14.00">[root] provider[&quot;registry.terraform.io/hashicorp/null&quot;] (close)</text>
</g>
<!-- [root] provider[&quot;registry.terraform.io/hashicorp/null&quot;] (close)&#45;&gt;[root] null_resource.instance_check (expand) -->
<g id="edge26" class="edge">
<title>[root] provider[&quot;registry.terraform.io/hashicorp/null&quot;] (close)&#45;&gt;[root] null_resource.instance_check (expand)</title>
<path fill="none" stroke="black" d="M1238.96,-359.7C1240.5,-351.98 1242.36,-342.71 1244.08,-334.11"/>
<polygon fill="black" stroke="black" points="1247.55,-334.6 1246.08,-324.1 1240.69,-333.22 1247.55,-334.6"/>
</g>
<!-- [root] root -->
<g id="node21" class="node">
<title>[root] root</title>
<ellipse fill="none" stroke="black" cx="1075.5" cy="-450" rx="58.49" ry="18"/>
<text text-anchor="middle" x="1075.5" y="-446.3" font-family="Times,serif" font-size="14.00">[root] root</text>
</g>
<!-- [root] root&#45;&gt;[root] output.dev_public_address -->
<g id="edge27" class="edge">
<title>[root] root&#45;&gt;[root] output.dev_public_address</title>
<path fill="none" stroke="black" d="M1020.72,-443.43C989.91,-437.18 953.85,-423.95 934.5,-396 925.39,-382.85 926.89,-374.07 934.5,-360 941.32,-347.39 952.59,-337.3 964.58,-329.45"/>
<polygon fill="black" stroke="black" points="966.64,-332.29 973.39,-324.13 963.02,-326.3 966.64,-332.29"/>
</g>
<!-- [root] root&#45;&gt;[root] provider[&quot;registry.terraform.io/hashicorp/aws&quot;] (close) -->
<g id="edge28" class="edge">
<title>[root] root&#45;&gt;[root] provider[&quot;registry.terraform.io/hashicorp/aws&quot;] (close)</title>
<path fill="none" stroke="black" d="M1035.17,-436.89C953.34,-412.33 767.14,-356.43 667.79,-326.6"/>
<polygon fill="black" stroke="black" points="668.75,-323.23 658.16,-323.71 666.73,-329.94 668.75,-323.23"/>
</g>
<!-- [root] root&#45;&gt;[root] provider[&quot;registry.terraform.io/hashicorp/http&quot;] (close) -->
<g id="edge29" class="edge">
<title>[root] root&#45;&gt;[root] provider[&quot;registry.terraform.io/hashicorp/http&quot;] (close)</title>
<path fill="none" stroke="black" d="M1130.75,-443.94C1243,-433.65 1501.6,-409.96 1673.42,-394.22"/>
<polygon fill="black" stroke="black" points="1673.95,-397.68 1683.59,-393.29 1673.31,-390.71 1673.95,-397.68"/>
</g>
<!-- [root] root&#45;&gt;[root] provider[&quot;registry.terraform.io/hashicorp/null&quot;] (close) -->
<g id="edge30" class="edge">
<title>[root] root&#45;&gt;[root] provider[&quot;registry.terraform.io/hashicorp/null&quot;] (close)</title>
<path fill="none" stroke="black" d="M1107.88,-434.83C1130.81,-424.8 1161.96,-411.18 1187.74,-399.9"/>
<polygon fill="black" stroke="black" points="1189.21,-403.07 1196.97,-395.86 1186.4,-396.66 1189.21,-403.07"/>
</g>
</g>
</svg>
